<svg xmlns="http://www.w3.org/2000/svg" xmlns:xlink="http://www.w3.org/1999/xlink" width="142" height="142" viewBox="0 0 142 142">
  <defs>
    <clipPath id="clip-path">
      <rect id="Rettangolo_32" data-name="Rettangolo 32" width="142" height="142" transform="translate(0 0)" fill="#fff"/>
    </clipPath>
  </defs>
  <g id="Raggruppa_292" data-name="Raggruppa 292" clip-path="url(#clip-path)">
    <path id="Tracciato_67" data-name="Tracciato 67" d="M36.381,141.733a10.5,10.5,0,0,1-.032-21,10.692,10.692,0,0,1,1.9.171l1.693.306L46.912,109,45.1,107.728A45.216,45.216,0,0,1,34,96.638l-1.274-1.816-12.2,6.974.306,1.693A10.5,10.5,0,1,1,0,105.361a10.048,10.048,0,0,1,2.961-7.29,10.943,10.943,0,0,1,7.7-3.209A10,10,0,0,1,17.338,97.4l1.305,1.144L30.86,91.564l-.927-2.023a44.8,44.8,0,0,1,0-37.35l.927-2.023L18.643,43.187l-1.305,1.145a10,10,0,0,1-6.678,2.539,10.944,10.944,0,0,1-7.7-3.209A10.04,10.04,0,0,1,0,36.382a10.5,10.5,0,1,1,20.832,1.863l-.306,1.693,12.2,6.974L34.005,45.1A45.225,45.225,0,0,1,45.1,34l1.816-1.274-6.974-12.2-1.693.306a10.692,10.692,0,0,1-1.9.172,10.5,10.5,0,0,1,.023-21h.057a10.323,10.323,0,0,1,9.465,6.19,10.275,10.275,0,0,1-1.561,11.147l-1.145,1.305L50.169,30.86l2.023-.927a44.5,44.5,0,0,1,18.663-4.064,45.175,45.175,0,0,1,18.686,4.064l2.023.927,6.981-12.218L97.4,17.337A10.273,10.273,0,0,1,95.839,6.191,10.325,10.325,0,0,1,105.307,0h.048a10.5,10.5,0,0,1,.03,21,10.694,10.694,0,0,1-1.9-.171l-1.693-.306-6.974,12.2L96.638,34A45.22,45.22,0,0,1,107.729,45.1L109,46.912l12.2-6.974-.306-1.693a10.5,10.5,0,1,1,20.832-1.873,10.049,10.049,0,0,1-2.961,7.29,10.943,10.943,0,0,1-7.7,3.209,10,10,0,0,1-6.679-2.539l-1.305-1.145-12.218,6.982.927,2.023a44.8,44.8,0,0,1,0,37.35l-.927,2.023,12.205,6.974,1.3-1.125a10.49,10.49,0,0,1,6.8-2.554,10.893,10.893,0,0,1,7.885,3.428,10.923,10.923,0,0,1,0,14.146,10.9,10.9,0,0,1-7.886,3.429A10.51,10.51,0,0,1,120.9,103.488l.306-1.693L109,94.821l-1.274,1.816a45.22,45.22,0,0,1-11.091,11.091L94.822,109l6.974,12.2,1.693-.306a10.7,10.7,0,0,1,1.9-.172,10.5,10.5,0,0,1-.024,21H105.3A10.531,10.531,0,0,1,97.4,124.4l1.145-1.305-6.981-12.217-2.023.927a44.5,44.5,0,0,1-18.663,4.064A45.173,45.173,0,0,1,52.192,111.8l-2.023-.927-6.982,12.218,1.145,1.305a10.53,10.53,0,0,1-7.906,17.337Zm68.878-17.245a6.745,6.745,0,0,0,0,13.487l.049,0h.051a6.746,6.746,0,0,0,0-13.491h-.051Zm-68.886.02a6.656,6.656,0,0,0-6.743,6.623l0,.049v.051a6.746,6.746,0,1,0,13.491,0v-.051l0-.051a6.655,6.655,0,0,0-6.744-6.621m94.859-25.871a6.656,6.656,0,0,0-6.743,6.623l0,.049v.051a6.746,6.746,0,0,0,13.491,0v-.051l0-.051a6.655,6.655,0,0,0-6.744-6.621M70.866,29.827c-19.044,0-40.072,12.811-41.236,40.939l0,.049v.051a41.24,41.24,0,0,0,82.48,0v-.051l0-.051c-1.161-28.126-22.191-40.938-41.239-40.938M10.5,98.637a6.656,6.656,0,0,0-6.743,6.623l0,.049v.051a6.746,6.746,0,0,0,13.491,0v-.051l0-.051A6.655,6.655,0,0,0,10.5,98.637m0-68.989a6.656,6.656,0,0,0-6.743,6.623l0,.049v.051a6.746,6.746,0,0,0,13.491,0v-.051l0-.051A6.655,6.655,0,0,0,10.5,29.649m120.73-.022a6.753,6.753,0,0,0-6.745,6.745v.051l0,.051a6.745,6.745,0,0,0,13.487,0l0-.05v-.051a6.753,6.753,0,0,0-6.746-6.745M36.373,3.756a6.746,6.746,0,0,0,0,13.491h.05l.05,0A6.656,6.656,0,0,0,43.1,10.5a6.656,6.656,0,0,0-6.623-6.744l-.051,0Zm68.989,0A6.753,6.753,0,0,0,98.616,10.5v.051l0,.051a6.745,6.745,0,0,0,13.487,0l0-.05V10.5a6.753,6.753,0,0,0-6.745-6.745" transform="translate(0 -0.013)" fill="#fff"/>
    <path id="Tracciato_68" data-name="Tracciato 68" d="M325.741,378.165a9.528,9.528,0,0,1-7.775-3.936l-.57-.8-.966-.18a9.331,9.331,0,0,1-6.055-3.891,8.7,8.7,0,0,1-1.392-6.564l.221-1.173-.792-.893a8.734,8.734,0,0,1-2.211-5.774,8.855,8.855,0,0,1,2.236-5.869l.8-.906L309,346.994a8.636,8.636,0,0,1,1.378-6.659,9.385,9.385,0,0,1,5.9-3.855l.985-.2.556-.838a9.423,9.423,0,0,1,7.909-4.149,9.637,9.637,0,0,1,5.993,2.079l1.518,1.211,1.518-1.211a9.635,9.635,0,0,1,5.992-2.079,9.425,9.425,0,0,1,7.91,4.149l.556.838.985.2a9.383,9.383,0,0,1,5.9,3.856,8.639,8.639,0,0,1,1.377,6.658l-.239,1.183.8.906a8.856,8.856,0,0,1,2.236,5.869,8.734,8.734,0,0,1-2.211,5.775l-.792.893.221,1.173a8.7,8.7,0,0,1-1.394,6.565,9.329,9.329,0,0,1-6.053,3.89l-.966.18-.57.8a9.635,9.635,0,0,1-13.747,1.858l-1.518-1.211-1.518,1.211a9.477,9.477,0,0,1-5.972,2.078m-5.341-7.293a5.621,5.621,0,0,0,5.322,3.538,5.456,5.456,0,0,0,5.63-5.248V340.221a5.406,5.406,0,0,0-5.645-5.158,5.538,5.538,0,0,0-5.352,3.649l-.459,1.393-1.42-.061c-.084,0-.177-.006-.27-.006a5.783,5.783,0,0,0-4.007,1.572,5,5,0,0,0-.9,6.237l.985,1.639-1.656.956a5.067,5.067,0,0,0-.039,8.91l1.611.947-.939,1.615a4.955,4.955,0,0,0,.936,6.173,5.794,5.794,0,0,0,4.019,1.57c.105,0,.211,0,.317-.008l1.385-.074Zm20.355-35.81a5.407,5.407,0,0,0-5.645,5.16v29a5.4,5.4,0,0,0,5.656,5.174,5.481,5.481,0,0,0,5.288-3.5l.488-1.317,1.381.074c.11.006.215.008.32.008a5.8,5.8,0,0,0,4.02-1.57,4.955,4.955,0,0,0,.936-6.173l-.939-1.615,1.593-.937a5.08,5.08,0,0,0-.039-8.932l-1.637-.945.985-1.638a5,5,0,0,0-.9-6.238,5.806,5.806,0,0,0-4.023-1.57c-.082,0-.165,0-.248.005l-1.426.061-.459-1.393a5.538,5.538,0,0,0-5.352-3.649" transform="translate(-262.364 -283.875)" fill="#fff"/>
  </g>
</svg>
