<svg xmlns="http://www.w3.org/2000/svg" xmlns:xlink="http://www.w3.org/1999/xlink" width="142" height="142" viewBox="0 0 142 142">
  <defs>
    <clipPath id="clip-path">
      <rect id="Rettangolo_32" data-name="Rettangolo 32" width="142" height="142" transform="translate(0 0)" fill="#fff"/>
    </clipPath>
  </defs>
  <g id="Raggruppa_294" data-name="Raggruppa 294" opacity="0.691">
    <g id="Raggruppa_292" data-name="Raggruppa 292" transform="translate(0 0)" clip-path="url(#clip-path)">
      <path id="Tracciato_67" data-name="Tracciato 67" d="M36.341,141.577a10.49,10.49,0,0,1-.032-20.98,10.68,10.68,0,0,1,1.894.171l1.691.306,6.966-12.191-1.814-1.272A45.167,45.167,0,0,1,33.968,96.531l-1.273-1.814L20.5,101.683l.305,1.691A10.489,10.489,0,1,1,0,105.245a10.037,10.037,0,0,1,2.958-7.282,10.931,10.931,0,0,1,7.69-3.205,9.99,9.99,0,0,1,6.671,2.536l1.3,1.143,12.2-6.974-.926-2.02a44.752,44.752,0,0,1,0-37.309l.926-2.021-12.2-6.974-1.3,1.144a9.987,9.987,0,0,1-6.67,2.536,10.932,10.932,0,0,1-7.689-3.206A10.029,10.029,0,0,1,0,36.342,10.488,10.488,0,1,1,20.81,38.2L20.5,39.894,32.7,46.86l1.272-1.814A45.175,45.175,0,0,1,45.046,33.968L46.861,32.7,39.895,20.5l-1.691.305a10.681,10.681,0,0,1-1.9.171A10.49,10.49,0,0,1,36.332,0h.056a10.312,10.312,0,0,1,9.454,6.183,10.264,10.264,0,0,1-1.559,11.135l-1.143,1.3,6.974,12.2,2.021-.926a44.449,44.449,0,0,1,18.643-4.06A45.125,45.125,0,0,1,89.443,29.9l2.021.926,6.974-12.2-1.144-1.3a10.262,10.262,0,0,1-1.56-11.134A10.313,10.313,0,0,1,105.191,0h.048a10.49,10.49,0,0,1,.03,20.98,10.683,10.683,0,0,1-1.894-.171l-1.691-.305L94.717,32.695l1.814,1.273A45.17,45.17,0,0,1,107.61,45.046l1.272,1.814,12.191-6.966-.306-1.691a10.489,10.489,0,1,1,20.809-1.871,10.038,10.038,0,0,1-2.958,7.282,10.931,10.931,0,0,1-7.689,3.205,9.991,9.991,0,0,1-6.671-2.536l-1.3-1.143-12.2,6.974.926,2.021a44.751,44.751,0,0,1,0,37.308l-.926,2.02,12.192,6.967,1.3-1.124a10.479,10.479,0,0,1,6.793-2.551,10.881,10.881,0,0,1,7.876,3.424,10.911,10.911,0,0,1,0,14.131,10.884,10.884,0,0,1-7.877,3.425,10.5,10.5,0,0,1-10.27-12.361l.306-1.691-12.191-6.966-1.272,1.814A45.171,45.171,0,0,1,96.532,107.61l-1.814,1.272,6.966,12.191,1.691-.306a10.687,10.687,0,0,1,1.895-.171,10.49,10.49,0,0,1-.024,20.98h-.057a10.519,10.519,0,0,1-7.894-17.319l1.144-1.3-6.974-12.2-2.021.926a44.446,44.446,0,0,1-18.643,4.06,45.123,45.123,0,0,1-18.666-4.06l-2.021-.926-6.974,12.2,1.144,1.3a10.518,10.518,0,0,1-7.9,17.318Zm68.8-17.226a6.737,6.737,0,0,0,0,13.472l.049,0h.051a6.738,6.738,0,0,0,0-13.476h-.051Zm-68.811.02a6.648,6.648,0,0,0-6.736,6.616l0,.049v.051a6.738,6.738,0,1,0,13.476,0v-.051l0-.051a6.648,6.648,0,0,0-6.736-6.614m94.754-25.842a6.648,6.648,0,0,0-6.736,6.616l0,.049v.051a6.738,6.738,0,0,0,13.476,0v-.051l0-.051a6.648,6.648,0,0,0-6.736-6.614m-60.3-68.734c-19.023,0-40.028,12.8-41.191,40.894l0,.049v.051a41.194,41.194,0,0,0,82.389,0v-.051l0-.051c-1.159-28.1-22.166-40.893-41.194-40.893M10.49,98.529a6.648,6.648,0,0,0-6.736,6.616l0,.049v.051a6.738,6.738,0,0,0,13.476,0v-.051l0-.051a6.648,6.648,0,0,0-6.736-6.614m0-68.913a6.648,6.648,0,0,0-6.736,6.616l0,.049v.051a6.738,6.738,0,0,0,13.476,0v-.051l0-.051a6.648,6.648,0,0,0-6.736-6.614m120.6-.022a6.746,6.746,0,0,0-6.738,6.738v.051l0,.051a6.737,6.737,0,0,0,13.472,0l0-.049v-.051a6.746,6.746,0,0,0-6.738-6.738M36.333,3.752a6.738,6.738,0,0,0,0,13.476h.05l.05,0a6.649,6.649,0,0,0,6.617-6.736,6.649,6.649,0,0,0-6.616-6.737l-.051,0Zm68.913,0a6.746,6.746,0,0,0-6.738,6.738v.051l0,.051a6.737,6.737,0,0,0,13.472,0l0-.05V10.49a6.746,6.746,0,0,0-6.738-6.738" transform="translate(0 -0.013)" fill="#fff"/>
    </g>
    <g id="Icon_solar-lightbulb-bolt-broken" data-name="Icon solar-lightbulb-bolt-broken" transform="translate(53.41 48.382)">
      <path id="Tracciato_69" data-name="Tracciato 69" d="M29.289,42.441H18.021m11.268,0a22.974,22.974,0,0,1,.086-2.945A4.674,4.674,0,0,1,30.8,36.313c.34-.419,1.6-1.55,4.129-3.813a16.921,16.921,0,0,0,4.669-18.229M29.289,42.441c0,2.107,0,3.16-.453,3.944A3.38,3.38,0,0,1,27.6,47.622c-.784.453-1.837.453-3.944.453s-3.16,0-3.944-.453a3.38,3.38,0,0,1-1.237-1.237c-.453-.784-.453-1.837-.453-3.944m0,0a22.973,22.973,0,0,0-.086-2.945,4.674,4.674,0,0,0-1.422-3.182c-.34-.419-1.6-1.55-4.129-3.813A16.9,16.9,0,0,1,32.092,5.257" transform="translate(-6.745 -2.994)" fill="none" stroke="#fff" stroke-linecap="round" stroke-width="3"/>
      <path id="Tracciato_70" data-name="Tracciato 70" d="M20.794,12.75l-4.829,6.761h6.761L17.9,26.272" transform="translate(-2.113 1.907)" fill="none" stroke="#fff" stroke-linecap="round" stroke-linejoin="round" stroke-width="3"/>
    </g>
  </g>
</svg>
