<svg xmlns="http://www.w3.org/2000/svg" xmlns:xlink="http://www.w3.org/1999/xlink" width="142" height="142" viewBox="0 0 142 142">
	<defs>
		<clipPath id="clip-path">
			<rect id="Rettangolo_32" data-name="Rettangolo 32" width="142" height="142" transform="translate(0 0)" fill="#9fbacd" />
		</clipPath>
	</defs>
	<g id="Raggruppa_297" data-name="Raggruppa 297" transform="translate(-1371 -1555)" opacity="0.512">
		<g id="Raggruppa_295" data-name="Raggruppa 295" transform="translate(1371 1555)">
			<g id="Raggruppa_292" data-name="Raggruppa 292" transform="translate(0 0)" clip-path="url(#clip-path)">
				<path id="Tracciato_67" data-name="Tracciato 67" d="M36.33,141.534A10.487,10.487,0,0,1,36.3,120.56a10.676,10.676,0,0,1,1.893.171l1.69.306,6.964-12.188-1.814-1.272A45.153,45.153,0,0,1,33.957,96.5l-1.272-1.814L20.5,101.653l.305,1.69A10.485,10.485,0,1,1,0,105.213a10.034,10.034,0,0,1,2.957-7.279,10.928,10.928,0,0,1,7.687-3.2,9.987,9.987,0,0,1,6.669,2.535l1.3,1.143,12.2-6.972-.925-2.02a44.738,44.738,0,0,1,0-37.3l.926-2.02-12.2-6.972-1.3,1.143A9.984,9.984,0,0,1,10.645,46.8a10.929,10.929,0,0,1-7.687-3.2A10.026,10.026,0,0,1,0,36.331a10.485,10.485,0,1,1,20.8,1.861l-.306,1.69,12.188,6.964,1.272-1.814A45.161,45.161,0,0,1,45.033,33.957l1.814-1.272L39.883,20.5l-1.69.305a10.677,10.677,0,0,1-1.895.171A10.487,10.487,0,0,1,36.321,0h.056a10.309,10.309,0,0,1,9.451,6.181A10.26,10.26,0,0,1,44.27,17.313l-1.143,1.3,6.972,12.2,2.02-.926a44.436,44.436,0,0,1,18.637-4.058,45.111,45.111,0,0,1,18.66,4.058l2.02.926,6.972-12.2-1.144-1.3A10.259,10.259,0,0,1,95.7,6.183,10.31,10.31,0,0,1,105.159,0h.048a10.487,10.487,0,0,1,.03,20.974,10.68,10.68,0,0,1-1.894-.171l-1.69-.305L94.689,32.685,96.5,33.957a45.157,45.157,0,0,1,11.075,11.075l1.272,1.814,12.188-6.964-.306-1.69a10.486,10.486,0,1,1,20.8-1.87,10.035,10.035,0,0,1-2.957,7.279,10.928,10.928,0,0,1-7.687,3.2,9.988,9.988,0,0,1-6.669-2.535l-1.3-1.143-12.2,6.972.926,2.02a44.737,44.737,0,0,1,0,37.3l-.925,2.02L122.906,98.4l1.3-1.124A10.476,10.476,0,0,1,131,94.726a10.878,10.878,0,0,1,7.874,3.423,10.908,10.908,0,0,1,0,14.126A10.88,10.88,0,0,1,131,115.7a10.5,10.5,0,0,1-10.267-12.357l.306-1.69L108.85,94.688,107.578,96.5A45.157,45.157,0,0,1,96.5,107.577l-1.814,1.272,6.964,12.188,1.69-.306a10.684,10.684,0,0,1,1.894-.171,10.487,10.487,0,0,1-.024,20.974h-.057a10.516,10.516,0,0,1-7.892-17.314l1.143-1.3-6.972-12.2-2.02.925A44.432,44.432,0,0,1,70.779,115.7a45.109,45.109,0,0,1-18.66-4.059l-2.02-.925-6.972,12.2,1.143,1.3a10.515,10.515,0,0,1-7.895,17.313Zm68.781-17.221a6.735,6.735,0,0,0,0,13.468l.049,0h.051a6.736,6.736,0,0,0,0-13.472h-.051Zm-68.79.02a6.646,6.646,0,0,0-6.734,6.614l0,.049v.051a6.736,6.736,0,1,0,13.472,0V131l0-.051a6.646,6.646,0,0,0-6.734-6.612M131.048,98.5a6.646,6.646,0,0,0-6.734,6.614l0,.049v.051a6.736,6.736,0,0,0,13.472,0v-.051l0-.051a6.646,6.646,0,0,0-6.734-6.612M70.766,29.785c-19.018,0-40.016,12.793-41.178,40.881l0,.049v.051a41.182,41.182,0,0,0,82.364,0v-.051l0-.051c-1.159-28.087-22.159-40.88-41.181-40.88M10.487,98.5a6.646,6.646,0,0,0-6.734,6.614l0,.049v.051a6.736,6.736,0,0,0,13.472,0v-.051l0-.051A6.646,6.646,0,0,0,10.487,98.5m0-68.892a6.646,6.646,0,0,0-6.734,6.614l0,.049v.051a6.736,6.736,0,0,0,13.472,0V36.27l0-.051a6.646,6.646,0,0,0-6.734-6.612m120.561-.022a6.744,6.744,0,0,0-6.736,6.736v.051l0,.051a6.735,6.735,0,0,0,13.468,0l0-.049v-.051a6.744,6.744,0,0,0-6.736-6.736M36.322,3.751a6.736,6.736,0,0,0,0,13.472h.05l.05,0a6.647,6.647,0,0,0,6.615-6.734,6.647,6.647,0,0,0-6.614-6.734l-.051,0Zm68.892,0a6.744,6.744,0,0,0-6.736,6.736v.051l0,.051a6.735,6.735,0,0,0,13.468,0l0-.05v-.051a6.744,6.744,0,0,0-6.736-6.736" transform="translate(0 -0.013)" fill="#9fbacd" />
			</g>
		</g>
		<g id="Icon_park-date-comes-back" data-name="Icon park-date-comes-back" transform="translate(1426.709 1608.586)">
			<path id="Tracciato_71" data-name="Tracciato 71" d="M31.839,6H7.234A2.734,2.734,0,0,0,4.5,8.734V34.25a2.734,2.734,0,0,0,2.734,2.734H34.572a2.734,2.734,0,0,0,2.734-2.734V15.113" transform="translate(-4.5 -2.355)" fill="none" stroke="#9fbacd" stroke-linecap="round" stroke-linejoin="round" stroke-width="5" />
			<path id="Tracciato_72" data-name="Tracciato 72" d="M26.8,10.732l3.866-3.866L26.8,3M19.29,14.847V30.339m7.29-9.113v9.113M12,21.226v9.113" transform="translate(-2.887 -3)" fill="none" stroke="#9fbacd" stroke-linecap="round" stroke-linejoin="round" stroke-width="5" />
		</g>
	</g>
</svg>
