 <svg xmlns="http://www.w3.org/2000/svg" width="43.666" height="43.484" viewBox="0 0 43.666 43.484">
                    <path
                        d="M44.891,4.5H7.775A3.228,3.228,0,0,0,4.5,7.593v37.3a3.228,3.228,0,0,0,3.275,3.093H44.891a3.228,3.228,0,0,0,3.275-3.093V7.593A3.228,3.228,0,0,0,44.891,4.5ZM17.418,41.616H11.05V20.875h6.368ZM14.325,17.964A3.843,3.843,0,0,1,10.5,14.143a3.731,3.731,0,0,1,3.821-3.821,3.821,3.821,0,1,1,0,7.642ZM41.8,41.434H35.43V31.245c0-2.365,0-5.64-3.457-5.64s-3.821,2.729-3.821,5.276V41.252H21.784V20.875h6V23.6h.182a7.1,7.1,0,0,1,6.186-3.457c6.55,0,7.823,4.367,7.823,10.007v11.28Z"
                        transform="translate(-4.5 -4.5)" fill="#fff" />
                </svg>