<svg xmlns="http://www.w3.org/2000/svg" width="544.997" height="757" viewBox="0 0 544.997 757">
  <path id="Sottrazione_8" data-name="Sottrazione 8" d="M495,671.43H50a49.958,49.958,0,0,1-50-50v-259.6A38.758,38.758,0,0,1,8.158,345.5a83.434,83.434,0,0,1,11.61-10.991,71.3,71.3,0,0,0,8.267-7.575,50.9,50.9,0,0,0,9.529-16.219,53.985,53.985,0,0,0,3.116-17.22.03.03,0,0,0,.013-.008c0-.17,0-.351,0-.569s0-.4,0-.57a.027.027,0,0,0-.013-.008,53.974,53.974,0,0,0-3.117-17.218,50.907,50.907,0,0,0-9.528-16.22,71.281,71.281,0,0,0-8.267-7.574,83.447,83.447,0,0,1-11.61-10.99A38.759,38.759,0,0,1,0,224.006V-35.57A49.689,49.689,0,0,1,3.929-55.032,49.832,49.832,0,0,1,14.645-70.925,49.833,49.833,0,0,1,30.538-81.641,49.688,49.688,0,0,1,50-85.57H495a49.685,49.685,0,0,1,19.462,3.929,49.832,49.832,0,0,1,15.893,10.715,49.833,49.833,0,0,1,10.715,15.893A49.689,49.689,0,0,1,545-35.57v657a49.958,49.958,0,0,1-50,50Z" transform="translate(0 85.57)" fill="#ff990e"/>
</svg>
