<?xml version="1.0" encoding="UTF-8"?>
<svg id="Layer_1" xmlns="http://www.w3.org/2000/svg" version="1.1" viewBox="0 0 471 508">
  <!-- Generator: Adobe Illustrator 29.1.0, SVG Export Plug-In . SVG Version: 2.1.0 Build 142)  -->
  <defs>
    <style>
      .st0 {
        fill: #598ba7;
      }
    </style>
  </defs>
  <path id="Sottrazione_3" class="st0" d="M-58.5,501V50C-58.5,22.4-36.2,0-8.6,0h185.4c5.2,1.2,10,3.6,14.1,7.1,3.5,3,6.7,6.4,9.5,10,2,2.6,4.2,4.9,6.5,7.1,8,7,18.3,10.8,28.9,10.9t0,0h1c10.6-.1,20.9-4,28.9-10.9,2.4-2.2,4.6-4.6,6.5-7.1,2.8-3.6,6-7,9.5-10C285.9,3.6,290.7,1.2,295.9,0h183.6c27.6,0,50,22.3,50,49.9,0,0,0,0,0,0v451c0,27.6-22.3,50-49.9,50h-178.4c-6.4-.5-12.6-2.7-17.8-6.6-4.5-3.4-8.1-7.6-11.1-11.3-2-2.5-4.2-4.9-6.5-7.1-8-7-18.3-10.8-28.9-10.9,0,0,0,0,0,0h-1c-5.1,0-10.1,1-14.9,2.7-5.1,1.9-9.9,4.6-14,8.2-2.4,2.2-4.6,4.6-6.5,7.1-3.1,3.7-6.6,8-11.1,11.3-5.2,3.8-11.3,6.1-17.8,6.6H-8.5c-27.6,0-50-22.3-50-49.9,0,0,0,0,0,0Z"/>
</svg>