<?xml version="1.0" encoding="UTF-8"?>
<svg id="Layer_1" xmlns="http://www.w3.org/2000/svg" version="1.1" viewBox="0 0 471 508">
  <!-- Generator: Adobe Illustrator 29.1.0, SVG Export Plug-In . SVG Version: 2.1.0 Build 142)  -->
  <defs>
    <style>
      .st0 {
        fill: #9fbacd;
      }
    </style>
  </defs>
  <path id="Sottrazione_7" class="st0" d="M421,828H50C22.4,828,0,805.7,0,778.1H0V-260c0-27.6,22.3-50,49.9-50,0,0,0,0,0,0h371c27.6,0,50,22.3,50,49.9h0V188.3c-.5,6.4-2.7,12.6-6.6,17.7-3.4,4.5-7.6,8-11.3,11.1-2.5,2-4.9,4.2-7.1,6.5-7,8-10.8,18.3-10.9,28.9,0,0,0,0,0,0v1h0c0,5.1,1,10.1,2.7,14.9,1.9,5.1,4.6,9.9,8.2,14,2.2,2.4,4.6,4.6,7.1,6.5h0c3.7,3.1,8,6.6,11.3,11.1,3.8,5.2,6.1,11.3,6.6,17.7v460c0,27.6-22.3,50-49.9,50,0,0,0,0,0,0Z"/>
</svg>