<svg xmlns="http://www.w3.org/2000/svg" width="544.997" height="756.999" viewBox="0 0 544.997 756.999">
  <path id="Sottrazione_9" data-name="Sottrazione 9" d="M8104,671.429H7659a49.957,49.957,0,0,1-50-50v-259.6a38.785,38.785,0,0,1,8.157-16.328,83.4,83.4,0,0,1,11.61-10.99l.012-.01a71.048,71.048,0,0,0,8.257-7.567,50.9,50.9,0,0,0,9.528-16.218,53.98,53.98,0,0,0,3.117-17.219h0l0,0,.007-.005c0-.149,0-.307,0-.5v-.137c0-.187,0-.35,0-.506l-.006,0-.006,0a53.93,53.93,0,0,0-3.119-17.217,50.866,50.866,0,0,0-9.526-16.22,70.908,70.908,0,0,0-8.242-7.553l-.025-.021a83.429,83.429,0,0,1-11.611-10.991A38.786,38.786,0,0,1,7609,224.007V-35.569a49.707,49.707,0,0,1,3.929-19.464,49.846,49.846,0,0,1,10.715-15.893,49.815,49.815,0,0,1,15.895-10.715A49.685,49.685,0,0,1,7659-85.57h445a49.685,49.685,0,0,1,19.462,3.929,49.823,49.823,0,0,1,15.893,10.715,49.828,49.828,0,0,1,10.715,15.893A49.694,49.694,0,0,1,8154-35.569V217.9a39.123,39.123,0,0,1-7.619,20.542c-3.893,5.259-8.782,9.312-13.1,12.889a71.284,71.284,0,0,0-8.267,7.574,50.9,50.9,0,0,0-9.528,16.219,54,54,0,0,0-3.117,17.218c-.008.005-.01.007-.01.008,0,.19,0,.379,0,.569s0,.381,0,.571c0,0,0,0,.01.006a53.992,53.992,0,0,0,3.117,17.221,50.9,50.9,0,0,0,9.528,16.218,71.35,71.35,0,0,0,8.266,7.574c4.314,3.576,9.2,7.63,13.1,12.89A39.131,39.131,0,0,1,8154,367.937V621.431a49.957,49.957,0,0,1-50,50Z" transform="translate(-7609 85.57)" fill="#fff"/>
</svg>
