<?xml version="1.0" encoding="UTF-8"?>
<svg id="Layer_1" xmlns="http://www.w3.org/2000/svg" version="1.1" viewBox="0 0 471 508">
  <!-- Generator: Adobe Illustrator 29.1.0, SVG Export Plug-In . SVG Version: 2.1.0 Build 142)  -->
  <defs>
    <style>
      .st0 {
        fill: #103b59;
      }
    </style>
  </defs>
  <path id="Sottrazione_5" class="st0" d="M421,798H50c-27.6,0-50-22.3-50-49.9h0v-435.4c1.2-5.2,3.6-10,7-14.1,3-3.5,6.4-6.7,10-9.5,2.6-2,4.9-4.2,7.1-6.5,7-8,10.8-18.3,10.9-28.9,0,0,0,0,0,0v-1h0c-.1-10.6-4-20.9-10.9-28.9-2.2-2.4-4.6-4.6-7.1-6.5-3.6-2.8-7-6-10-9.5-3.4-4.1-5.9-8.9-7.1-14.1V-230c0-27.6,22.3-50,49.9-50,0,0,0,0,0,0h371c27.6,0,50,22.3,50,49.9h0v978.1c0,27.6-22.3,50-49.9,50,0,0,0,0,0,0Z"/>
</svg>