<svg xmlns="http://www.w3.org/2000/svg" width="2003.984" height="518.933" viewBox="0 0 2003.984 518.933">
  <g id="logo-wht" transform="translate(0.5)" opacity="0.079" style="isolation: isolate">
    <path id="Tracciato_3" data-name="Tracciato 3" d="M176.626,361.409c-22.734,12.755-51.3,16.234-88.008,16.234-25.664,0-55.386-1.739-88.008-5.218V323.143c29.722,3.479,58.865,5.8,81.02,5.8,20.415,0,37.9-1.159,51.877-6.378,16.326-6.378,21.575-18.553,21.575-33.048,0-19.713-11.077-29.569-32.042-36.527-14.556-4.638-28.563-7.537-48.4-12.755C25.053,227.475,0,206.023,0,157.319c0-28.41,10.5-57.4,37.29-73.055C59.445,72.089,86.268,68.61,120.66,68.61c22.154,0,79.86,1.525,79.86,1.525v48.124s-53.616-2.686-74.611-2.686c-18.065,0-32.652,1.16-45.469,5.8-15.746,5.8-19.8,18.554-19.8,30.73,0,17.974,9.338,27.251,29.722,34.208,13.4,4.059,27.983,7.538,45.469,12.176,51.877,12.175,79.86,34.788,79.86,86.939,0,29.57-11.077,59.72-39.06,75.954Z" transform="translate(0 140.759)" fill="#fff" stroke="#fff" stroke-width="1"/>
    <path id="Tracciato_4" data-name="Tracciato 4" d="M150.62,373.11V110.369s4.395-4.242,36.07-18.889,68.2-20.69,106.073-20.69h26.884v48.948c-54.378,0-72.932,2.289-105.492,16.54V373.14H150.62Z" transform="translate(309.009 145.231)" fill="#fff" stroke="#fff" stroke-width="1"/>
    <path id="Tracciato_5" data-name="Tracciato 5" d="M303.9,373.172c-25.054,0-51.084-2.014-70.34-19.5-18.646-17.486-27.007-38.725-27.007-69.027,0-32.042,12.237-58.346,42.539-74.092,22.154-11.657,45.8-13.7,77.266-13.7H402.95v-7.293c0-51.3-20.964-69.82-86.268-69.82h-75.77V70.79h82.453c40.342.122,86.573,3.967,113.4,28.441,26.824,23.894,30.3,55.966,30.3,97.346V373.172h-163.2ZM402.98,239.39H334.2c-48.368,0-65.273,13.762-65.273,43.485,0,27.983,19.225,43.515,53.616,43.515H402.98Z" transform="translate(423.754 145.231)" fill="#fff" stroke="#fff" stroke-width="1"/>
    <path id="Tracciato_6" data-name="Tracciato 6" d="M312.41,451.234V32.74h63.534V451.265H312.41Z" transform="translate(640.935 67.169)" fill="#fff" stroke="#fff" stroke-width="1"/>
    <path id="Tracciato_7" data-name="Tracciato 7" d="M487.294,373.509c-32.651,0-72.812-7.629-98.444-33.872-27.982-28.563-38.48-63.229-38.48-113.946s12.238-95,44.309-124.169c24.473-20.964,54.775-30.882,96.765-30.882,32.652,0,67.043,6.988,92.676,29.723,36.131,31.461,39.641,76.93,39.641,139.3H415.675c1.158,61.795,29.142,83.705,84.528,83.705H612.714v50.107H487.325Zm.06-260.3c-51.3,0-68.782,32.652-71.679,83.949H559.648C557.328,141.193,538.652,113.21,487.354,113.21Z" transform="translate(718.812 144.924)" fill="#fff" stroke="#fff" stroke-width="1"/>
    <path id="Tracciato_8" data-name="Tracciato 8" d="M666.357,373.274V189.08c0-47.788-35.522-64.694-75.161-64.694-22.734,0-38.023.641-69.971,8.545V373.274H457.69V99.669s36.039-28.929,154.5-28.929c32.071,0,73.39,8.758,94.385,32.652,19.224,22.155,23.314,49.558,23.314,83.369V373.274Z" transform="translate(938.988 145.128)" fill="#fff" stroke="#fff" stroke-width="1"/>
    <path id="Tracciato_9" data-name="Tracciato 9" d="M198.341,378.689c-22.735,0-36.131-10.559-42.539-32.713-4.089-15.746-4.669-34.391-4.669-55.386V174.9h47.818l34.208-48.947h-82V43.9L90.437,85.89s-3.387,23.5-3.387,40.067v174c0,33.232,4.089,61.795,13.976,82.759,15.166,34.971,46.628,45.621,78.121,45.621h62.374V378.689h-43.15Z" transform="translate(178.591 90.065)" fill="#fff" stroke="#fff" stroke-width="1"/>
    <path id="Tracciato_10" data-name="Tracciato 10" d="M676.062,378.689c-22.733,0-36.131-10.559-42.538-32.713-4.09-15.746-4.672-34.391-4.672-55.386V174.9h47.82l34.209-48.947h-82V43.9L568.16,85.89s-3.39,23.5-3.39,40.067v174c0,33.232,4.09,61.795,13.976,82.759,15.167,34.971,46.629,45.621,78.121,45.621h62.374V378.689H676.093Z" transform="translate(1158.672 90.065)" fill="#fff" stroke="#fff" stroke-width="1"/>
    <path id="stellina" d="M780.52,21.208,742.5,95.85l59.231,59.2L719,141.96l-51.206,74,.062-82.088-82.086.061,74-51.206L646.649,0l59.229,59.231Z" transform="translate(1201.755)" fill="#fff"/>
  </g>
</svg>
