<svg id="logo-wht" xmlns="http://www.w3.org/2000/svg" width="445.854" height="124.105" viewBox="0 0 445.854 124.105">
	<path id="Tracciato_3" data-name="Tracciato 3" d="M39.306,138.7c-5.059,3.053-11.416,3.886-19.585,3.886A174.75,174.75,0,0,1,.136,141.339v-11.8a154.819,154.819,0,0,0,18.03,1.388c4.543,0,8.434-.278,11.545-1.527,3.633-1.527,4.8-4.441,4.8-7.911,0-4.719-2.465-7.078-7.131-8.744-3.239-1.11-6.356-1.8-10.77-3.053C5.575,106.64,0,101.5,0,89.846c0-6.8,2.336-13.741,8.3-17.488,4.93-2.915,10.9-3.747,18.553-3.747,4.93,0,17.772.365,17.772.365V80.5s-11.932-.643-16.6-.643c-4.02,0-7.266.278-10.119,1.388-3.5,1.388-4.407,4.441-4.407,7.356,0,4.3,2.078,6.523,6.614,8.189,2.981.972,6.227,1.8,10.119,2.915C41.771,102.615,48,108.028,48,120.512c0,7.079-2.465,14.3-8.692,18.182Z" transform="translate(0 -18.49)" fill="#fff" />
	<path id="Tracciato_4" data-name="Tracciato 4" d="M150.62,143.161v-62.9s.978-1.015,8.027-4.522,15.178-4.953,23.605-4.953h5.983V82.507c-12.1,0-16.23.548-23.476,3.959v56.7H150.62Z" transform="translate(-48.335 -19.078)" fill="#fff" />
	<path id="Tracciato_5" data-name="Tracciato 5" d="M228.213,143.176c-5.576,0-11.368-.482-15.653-4.668-4.149-4.186-6.01-9.27-6.01-16.524,0-7.67,2.723-13.967,9.467-17.737,4.93-2.79,10.193-3.28,17.195-3.28h17.045V99.221c0-12.28-4.665-16.714-19.2-16.714H214.2V70.79h18.349c8.978.029,19.266.95,25.235,6.808,5.969,5.72,6.743,13.4,6.743,23.3v42.274H228.206Zm22.05-32.025H234.957c-10.764,0-14.526,3.295-14.526,10.41,0,6.7,4.278,10.417,11.932,10.417h17.9Z" transform="translate(-66.283 -19.078)" fill="#fff" />
	<path id="Tracciato_6" data-name="Tracciato 6" d="M312.41,132.921V32.74h14.139V132.929H312.41Z" transform="translate(-100.253 -8.823)" fill="#fff" />
	<path id="Tracciato_7" data-name="Tracciato 7" d="M380.841,143.142c-7.266,0-16.2-1.826-21.908-8.108-6.227-6.838-8.563-15.136-8.563-27.277s2.723-22.741,9.861-29.724c5.446-5.019,12.19-7.393,21.534-7.393,7.266,0,14.92,1.673,20.624,7.115,8.041,7.531,8.822,18.416,8.822,33.347H364.9c.258,14.793,6.485,20.038,18.811,20.038h25.038v11.995h-27.9Zm.013-62.312c-11.416,0-15.307,7.816-15.952,20.1h32.04C396.426,87.529,392.27,80.831,380.854,80.831Z" transform="translate(-112.435 -19.037)" fill="#fff" />
	<path id="Tracciato_8" data-name="Tracciato 8" d="M504.127,143.162V99.069c0-11.44-7.905-15.487-16.726-15.487a50.805,50.805,0,0,0-15.571,2.045v57.534H457.69v-65.5s8.02-6.925,34.383-6.925c7.137,0,16.332,2.1,21,7.816,4.278,5.3,5.188,11.863,5.188,19.957v44.648Z" transform="translate(-146.874 -19.064)" fill="#fff" />
	<path id="Tracciato_9" data-name="Tracciato 9" d="M111.817,124.044c-5.059,0-8.041-2.528-9.467-7.831-.91-3.769-1.039-8.233-1.039-13.259V75.26h10.641l7.613-11.717H101.318V43.9L87.8,53.952a89.926,89.926,0,0,0-.754,9.592V105.2c0,7.955.91,14.793,3.11,19.811,3.375,8.372,10.377,10.921,17.385,10.921h13.881V124.044h-9.6Z" transform="translate(-27.935 -11.831)" fill="#fff" />
	<path id="Tracciato_10" data-name="Tracciato 10" d="M589.537,124.044c-5.059,0-8.041-2.528-9.466-7.831-.91-3.769-1.04-8.233-1.04-13.259V75.26h10.642l7.613-11.717H579.038V43.9L565.524,53.952a89.858,89.858,0,0,0-.754,9.592V105.2c0,7.955.91,14.793,3.11,19.811,3.375,8.372,10.377,10.921,17.385,10.921h13.88V124.044h-9.6Z" transform="translate(-181.236 -11.831)" fill="#fff" />
	<path id="stellina" d="M629.11,5.077l-8.461,17.868,13.181,14.172-18.41-3.134L604.023,51.7l.014-19.651-18.267.015L602.237,19.8,599.318,0,612.5,14.179Z" transform="translate(-187.975)" fill="#f7d81f" />
</svg>